<svg width="83" height="40" viewBox="0 0 83 40" fill="none" xmlns="http://www.w3.org/2000/svg">
<path d="M5.06784 38.6003C3.74517 38.6003 2.65717 38.2163 1.80384 37.4483C0.993172 36.6803 0.673171 35.5283 0.843838 33.9923C0.886505 33.4376 1.0145 32.8616 1.22784 32.2643C1.48384 31.6243 1.76117 31.0056 2.05984 30.4083C2.31584 29.8109 2.57184 29.5123 2.82784 29.5123C3.04117 29.5123 3.06251 29.6829 2.89184 30.0243C2.33717 31.1763 2.05984 32.2003 2.05984 33.0963C2.05984 34.0349 2.37984 34.7389 3.01984 35.2083C3.7025 35.6776 4.57717 35.9123 5.64384 35.9123C7.7345 35.9123 10.0385 35.2509 12.5558 33.9283C15.0732 32.5629 17.6758 30.8349 20.3638 28.7443C23.0518 26.6109 25.6332 24.3923 28.1078 22.0883C26.4438 22.0029 24.8865 21.9176 23.4358 21.8323C21.9852 21.7469 20.7052 21.7043 19.5958 21.7043C18.6572 21.7043 17.5265 21.7896 16.2038 21.9603C14.8812 22.1309 13.8572 22.5789 13.1318 23.3043C12.8332 23.6029 12.5558 24.0509 12.2998 24.6483C12.0865 25.2029 11.9798 25.7789 11.9798 26.3763C11.9798 26.5469 11.9798 26.7176 11.9798 26.8883C12.0225 27.0163 12.0652 27.1656 12.1078 27.3363C11.9372 27.2509 11.6172 27.1869 11.1478 27.1443C10.7212 27.0589 10.4438 26.7816 10.3158 26.3123C10.2732 26.1843 10.2518 25.9709 10.2518 25.6723C10.2518 24.9896 10.5078 24.4349 11.0198 24.0083C11.5318 23.5389 12.1505 23.1336 12.8758 22.7923C13.6012 22.4509 14.2625 22.1523 14.8598 21.8963C16.2678 21.2989 17.7185 20.8083 19.2118 20.4243C20.7052 20.0403 22.2198 19.8483 23.7558 19.8483C25.5052 19.8483 27.6812 19.9123 30.2838 20.0403C32.2892 18.0776 34.1452 16.2216 35.8518 14.4723C37.5585 12.7229 38.9452 11.2723 40.0118 10.1203C41.5052 8.5416 43.0838 7.1976 44.7478 6.08827C46.4545 4.93626 48.1825 4.1256 49.9318 3.65627H46.4118C44.9185 3.65627 43.2972 3.72027 41.5478 3.84827C39.7985 3.97626 38.1558 4.2536 36.6198 4.68027C35.0838 5.10693 33.8038 5.74693 32.7798 6.60027C32.1398 7.15493 31.6492 7.79493 31.3078 8.52027C31.0092 9.20293 30.8598 9.84293 30.8598 10.4403C30.8598 11.2509 31.0945 11.8056 31.5638 12.1043C31.6065 12.1043 31.6278 12.1256 31.6278 12.1683C31.6278 12.2963 31.4785 12.4456 31.1798 12.6163C30.8812 12.7443 30.6678 12.7656 30.5398 12.6803C30.1132 12.3816 29.7292 11.7843 29.3878 10.8883C29.0892 9.9496 28.9825 9.20293 29.0678 8.64827C29.2812 7.3256 29.8572 6.25893 30.7958 5.44827C31.7772 4.59493 32.9718 3.9336 34.3798 3.46426C35.8305 2.99493 37.3452 2.67493 38.9238 2.50426C40.5452 2.3336 42.0812 2.22693 43.5318 2.18427C45.0252 2.1416 46.2838 2.12027 47.3078 2.12027H54.2838C54.3692 2.12027 54.3905 2.1416 54.3478 2.18427C55.4145 1.71493 56.5238 1.2456 57.6758 0.776264C58.8705 0.306932 59.8945 0.0722656 60.7478 0.0722656C60.9612 0.0722656 61.1745 0.136266 61.3878 0.264267C61.6438 0.392265 61.7718 0.520265 61.7718 0.648266C61.7718 0.861599 61.3452 0.968266 60.4918 0.968266C60.0652 0.968266 59.6172 1.0536 59.1478 1.22427C58.7212 1.35226 58.1452 1.80026 57.4198 2.56826C56.8225 3.1656 56.0758 4.1256 55.1798 5.44827C54.2838 6.77093 53.3025 8.32827 52.2358 10.1203C51.1692 11.8696 50.1025 13.7469 49.0358 15.7523C47.9692 17.7149 46.9452 19.6563 45.9638 21.5763C44.9825 23.4963 44.1292 25.2669 43.4038 26.8883C43.3185 27.1443 43.0838 27.7416 42.6998 28.6803C42.3158 29.5763 41.9532 30.5789 41.6118 31.6883C41.2705 32.7549 41.0998 33.7149 41.0998 34.5683C41.0998 35.7203 41.5052 36.2963 42.3158 36.2963C42.6998 36.2963 43.0838 36.2109 43.4678 36.0403C44.0225 35.8269 44.5985 35.5069 45.1958 35.0803C45.7932 34.6536 46.3692 34.1629 46.9238 33.6083C48.0332 32.5416 48.9718 31.5176 49.7398 30.5363C50.5078 29.5123 50.9772 28.8936 51.1478 28.6803C51.2758 28.4669 51.4252 28.3603 51.5958 28.3603C51.7665 28.3603 51.8518 28.4669 51.8518 28.6803C51.8518 28.8083 51.7878 28.9789 51.6598 29.1923C51.3612 29.6189 50.8065 30.3656 49.9958 31.4323C49.1852 32.4563 48.2252 33.5016 47.1158 34.5683C46.0492 35.6349 44.8972 36.4456 43.6598 37.0003C43.2758 37.1709 42.8705 37.2989 42.4438 37.3843C42.0172 37.5123 41.5905 37.5763 41.1638 37.5763C40.3105 37.5763 39.5212 37.2776 38.7958 36.6803C38.1132 36.0829 37.7718 35.1016 37.7718 33.7363C37.7718 32.4989 38.0065 31.1763 38.4758 29.7683C38.9878 28.3176 39.4572 27.1443 39.8838 26.2483C40.7372 24.4136 41.7398 22.3656 42.8918 20.1043C44.0865 17.8429 45.3025 15.5816 46.5398 13.3203C47.8198 11.0589 48.9932 9.01093 50.0598 7.17627C51.1265 5.3416 52.0012 3.97627 52.6838 3.08027C52.0012 3.08027 51.0838 3.3576 49.9318 3.91227C48.7798 4.42427 47.5425 5.12827 46.2198 6.02427C44.9398 6.8776 43.7452 7.88027 42.6358 9.03227C41.3132 10.3976 39.7772 12.0616 38.0278 14.0243C36.3212 15.9869 34.4652 18.0349 32.4598 20.1683C33.4412 20.2109 34.4225 20.2536 35.4038 20.2963C36.3852 20.2963 37.3665 20.2963 38.3478 20.2963C39.0305 20.2963 39.7772 20.2323 40.5878 20.1043C41.4412 19.9336 42.2305 19.6776 42.9558 19.3363C42.9558 19.3363 42.8278 19.5709 42.5718 20.0403C42.3585 20.4669 41.9745 20.9149 41.4198 21.3843C40.9078 21.8109 40.2038 22.0669 39.3078 22.1523C38.4972 22.1949 37.6865 22.2376 36.8758 22.2803C36.0652 22.2803 35.2545 22.2803 34.4438 22.2803C33.7612 22.2803 33.0785 22.2803 32.3958 22.2803C31.7558 22.2803 31.1158 22.2589 30.4758 22.2163C28.5132 24.2643 26.4652 26.2696 24.3318 28.2323C22.1985 30.1523 20.0438 31.9016 17.8678 33.4803C15.6918 35.0589 13.5158 36.2963 11.3398 37.1923C9.2065 38.1309 7.11584 38.6003 5.06784 38.6003Z" fill="white"/>
<path d="M62.7688 39.1763C61.2755 39.1763 59.6968 38.9416 58.0328 38.4723C56.4115 38.0456 54.9608 37.3203 53.6808 36.2963C52.4435 35.2723 51.6115 33.9069 51.1848 32.2003C51.1422 31.9869 51.0995 31.7523 51.0568 31.4963C51.0568 31.2403 51.0568 30.9843 51.0568 30.7283C51.0568 29.4056 51.3555 28.1256 51.9528 26.8883C52.5502 25.6509 53.2755 24.7123 54.1288 24.0723H54.1928C54.2782 24.0723 54.3848 24.1789 54.5128 24.3923C54.6835 24.5629 54.6835 24.6909 54.5128 24.7763C54.0862 25.2029 53.7662 25.6936 53.5528 26.2483C53.3822 26.7603 53.2968 27.3149 53.2968 27.9123C53.2968 28.7229 53.4248 29.5549 53.6808 30.4083C53.9795 31.2189 54.3422 31.9229 54.7688 32.5203C55.8355 34.0136 57.3075 35.2083 59.1848 36.1043C61.1048 36.9576 62.9822 37.3843 64.8168 37.3843C67.3342 37.3843 69.2755 36.6376 70.6408 35.1443C72.0488 33.6509 72.7528 31.8163 72.7528 29.6403C72.7528 28.3176 72.4968 26.9949 71.9848 25.6723C71.3022 23.8376 70.3848 22.0456 69.2328 20.2963C68.1235 18.5043 67.0995 16.7549 66.1608 15.0483C65.3502 13.5123 64.9448 11.9549 64.9448 10.3763C64.9448 8.71227 65.4568 7.11227 66.4808 5.57627C67.5048 4.21093 68.8488 3.12293 70.5128 2.31226C72.2195 1.45893 73.9475 1.03226 75.6968 1.03226C76.8915 1.03226 78.0435 1.2456 79.1528 1.67226C80.2622 2.09893 81.2648 2.80293 82.1608 3.78426C82.4168 4.16826 82.5448 4.65893 82.5448 5.25627C82.5448 6.1096 82.3742 6.77093 82.0328 7.24026C81.6488 7.79493 81.2222 8.52027 80.7528 9.41627C80.2835 10.3123 80.0062 10.9309 79.9208 11.2723C79.8355 11.3149 79.6222 11.4003 79.2808 11.5283C78.9822 11.6136 78.7902 11.5923 78.7048 11.4643C78.8755 11.1229 79.1102 10.5043 79.4088 9.60826C79.7075 8.71227 79.8568 7.9016 79.8568 7.17627C79.8568 6.70693 79.8355 6.19493 79.7928 5.64027C79.7928 5.04293 79.5155 4.53093 78.9608 4.10427C78.4488 3.63493 77.7875 3.2296 76.9768 2.88826C76.1662 2.54693 75.1848 2.37627 74.0328 2.37627C71.6862 2.37627 69.8942 3.05893 68.6568 4.42427C67.4195 5.7896 66.8008 7.28293 66.8008 8.90427C66.8008 9.71493 66.9715 10.5256 67.3128 11.3363C67.9528 12.8723 68.8488 14.3229 70.0008 15.6883C71.1528 17.0536 72.2835 18.4616 73.3928 19.9123C74.5448 21.3203 75.4408 22.8563 76.0808 24.5203C76.5075 25.6296 76.7208 26.7603 76.7208 27.9123C76.7208 29.5763 76.2942 31.0909 75.4408 32.4563C74.6302 33.8216 73.5208 35.0163 72.1128 36.0403C70.7475 37.0216 69.2542 37.7896 67.6328 38.3443C66.0115 38.8989 64.3902 39.1763 62.7688 39.1763Z" fill="white"/>
</svg>
